<?xml version="1.0" standalone="no"?><!DOCTYPE svg PUBLIC "-//W3C//DTD SVG 1.1//EN" "http://www.w3.org/Graphics/SVG/1.1/DTD/svg11.dtd"><svg t="1677762150354" class="icon" viewBox="0 0 1024 1024" version="1.1" xmlns="http://www.w3.org/2000/svg" p-id="2765" xmlns:xlink="http://www.w3.org/1999/xlink" width="200" height="200"><path d="M493.024 360.56c-35.088-35.024-92.192-35.024-127.28 0-35.096 35.024-35.096 92.008 0 127.04 35.088 35.016 92.192 35.016 127.28 0 35.096-35.032 35.096-92.016 0-127.04z m477.408-264.752l52.92 353.488a29.904 29.904 0 0 1-8.456 25.6l-97.584 97.392a30.032 30.032 0 0 1-21.216 8.768h-54.856v54.744a29.92 29.92 0 0 1-8.784 21.176l-339.424 338.76c-35.096 35.024-92.2 35.024-127.288 0L26.32 656.976c-35.096-35.024-35.096-92.016 0-127.04l339.424-338.76A30.024 30.024 0 0 1 386.96 182.4h54.856v-54.744a29.92 29.92 0 0 1 8.784-21.176L548.184 9.088c6.72-6.712 16.24-9.84 25.648-8.44L928 53.464l44.784-44.696a30.04 30.04 0 0 1 42.424 0 29.904 29.904 0 0 1 0 42.352l-44.776 44.688z m-519.832 349.44a30.08 30.08 0 0 1-42.424 0 29.936 29.936 0 0 1 0-42.344 30.08 30.08 0 0 1 42.424 0 29.936 29.936 0 0 1 0 42.344z m42.424 254.072a89.648 89.648 0 0 1 0 127.04c-35.088 35.024-92.192 35.024-127.28 0-35.096-35.024-35.096-92.016 0-127.04 35.088-35.024 92.192-35.024 127.28 0zM450.6 784a29.888 29.888 0 0 0 0-42.344 30.08 30.08 0 0 0-42.432 0 29.936 29.936 0 0 0 0 42.344 30.08 30.08 0 0 0 42.432 0z m220.344-238.768a29.952 29.952 0 0 1-23.536 35.232L223.128 665.168a30 30 0 0 1-35.304-23.496 29.944 29.944 0 0 1 23.536-35.232L635.64 521.76a30 30 0 0 1 35.304 23.488z m34.224-142.336a29.896 29.896 0 0 1 0 42.344 30.048 30.048 0 0 1-42.432 0L577.88 360.56a29.904 29.904 0 0 1 0-42.352 30.04 30.04 0 0 1 42.432 0l84.856 84.696z m178.496 118.264l78.112-77.952-44.128-294.72-67.632 67.496c15.936 33.384 10.096 74.616-17.56 102.216-35.184 35.12-92.112 35.112-127.28 0-35.104-35.024-35.104-92.008 0-127.04 27.856-27.8 69.2-33.44 102.448-17.56l67.6-67.464L579.92 62.104l-78.112 77.96v59.88l33.648 33.576a29.904 29.904 0 0 1 0 42.344 30.04 30.04 0 0 1-42.432 0l-33.64-33.576h-60l-330.64 330a29.936 29.936 0 0 0 0 42.344l339.424 338.76a30.08 30.08 0 0 0 42.432 0l330.64-330v-59.888l-33.64-33.568a29.904 29.904 0 0 1 0-42.344 30.04 30.04 0 0 1 42.424 0l33.648 33.584h60zM790.024 275.864a29.936 29.936 0 0 0 0-42.344 30.032 30.032 0 0 0-42.424 0 29.936 29.936 0 0 0 0 42.344 30.024 30.024 0 0 0 42.424 0z" fill="#20A0FF" p-id="2766"></path></svg>