<?xml version="1.0" standalone="no"?><!DOCTYPE svg PUBLIC "-//W3C//DTD SVG 1.1//EN" "http://www.w3.org/Graphics/SVG/1.1/DTD/svg11.dtd"><svg t="1678763924539" class="icon" viewBox="0 0 1024 1024" version="1.1" xmlns="http://www.w3.org/2000/svg" p-id="14423" xmlns:xlink="http://www.w3.org/1999/xlink" width="200" height="200"><path d="M992 288v128H32V288h640z" fill="#E0EBFE" p-id="14424"></path><path d="M992 256h-288V160a32 32 0 0 0-32-32H352a32 32 0 0 0-32 32v96H32a32 32 0 0 0-32 32v128a32 32 0 0 0 32 32h32v416a32 32 0 0 0 32 32h832a32 32 0 0 0 32-32V448h32a32 32 0 0 0 32-32V288a32 32 0 0 0-32-32zM384 192h256v64h-256V192z m512 640H128V448h768v384z m64-448H64v-64h896v64z" fill="#5465CF" p-id="14425"></path><path d="M380.8 672H480v99.2a32 32 0 1 0 64 0V672h99.2a32 32 0 1 0 0-64H544v-99.2a32 32 0 1 0-64 0V608h-99.2a32 32 0 1 0 0 64z" fill="#5465CF" p-id="14426"></path></svg>