<?xml version="1.0" standalone="no"?><!DOCTYPE svg PUBLIC "-//W3C//DTD SVG 1.1//EN" "http://www.w3.org/Graphics/SVG/1.1/DTD/svg11.dtd"><svg t="1677763163031" class="icon" viewBox="0 0 1024 1024" version="1.1" xmlns="http://www.w3.org/2000/svg" p-id="33287" xmlns:xlink="http://www.w3.org/1999/xlink" width="200" height="200"><path d="M135.552 468.48a395.5328 395.5328 0 0 1-1.9072-38.848C133.6448 213.568 308.992 38.4 525.2736 38.4c216.2816 0 391.616 175.168 391.616 391.232a389.1712 389.1712 0 0 1-69.9904 223.2704 1018.3424 1018.3424 0 0 1-65.088-31.4112 105.92 105.92 0 0 1-6.208-3.5328c-54.6944-36.0064-100.5312-54.5408-142.4768-54.5408-44.3136 0-83.6864 21.4912-105.024 59.0336-14.6432 25.6256-18.9824 56.2176-14.7328 85.0816-51.2512-7.5648-89.152-18.176-117.0304-31.6544-30.336-14.656-45.9904-29.4144-73.1136-64.9984a3176.448 3176.448 0 0 1-4.096-5.3888c-24.3968-32.0768-36.9408-47.1936-57.1264-66.7264-44.224-42.752-84.4032-66.5344-126.4512-70.2848z" fill="#1989FA" fill-opacity=".3" p-id="33288"></path><path d="M638.4896 170.9312a27.8656 27.8656 0 0 0-39.3984 0l-77.9904 77.952-78.8096-78.7712a27.8656 27.8656 0 0 0-39.3984 39.3728l90.24 90.2144c-0.0256 0.5632-0.3072 1.024-0.3072 1.6v16.6912H423.168a27.8656 27.8656 0 1 0 0 55.7056h69.6576v36.0192H423.168a27.8656 27.8656 0 1 0 0 55.7056h69.6576v57.5488a27.8528 27.8528 0 0 0 55.7184 0v-57.5488h69.6704a27.8656 27.8656 0 1 0 0-55.7056h-69.6704v-36.0192h69.6704a27.8528 27.8528 0 1 0 0-55.7056h-69.6704V301.312c0-0.2048 29.9904-30.5408 89.9456-90.9824 10.88-10.88 10.88-28.5056 0-39.3856zM957.3632 747.8784c-97.856-20.0704-208.1664-81.664-208.3712-81.664-48.2176-32.2176-86.1184-47.8848-115.8656-47.8848-25.0624 0-45.952 11.392-57.2288 31.232-14.592 25.5744-9.8688 59.7248 2.2784 80.256 5.5936 9.3696 16.4992 25.472 28.096 42.1504-241.2416-15.1296-283.1104-70.2848-330.944-133.2992-14.9504-19.648-30.3744-39.9616-51.5712-60.4672-39.0656-37.76-70.8608-55.3472-100.0576-55.3472-22.6048 0-42.112 10.752-54.9504 30.2592-26.4704 40.3072-17.6384 113.024-8.0384 135.1808C169.536 939.52 432.2048 983.424 443.3152 985.1648c1.8304 0.2944 3.6608 0.4352 5.4912 0.4352h501.4528A35.328 35.328 0 0 0 985.6 950.272V782.4896a35.328 35.328 0 0 0-28.2368-34.6112z" fill="#1989FA" p-id="33289"></path></svg>