<?xml version="1.0" standalone="no"?><!DOCTYPE svg PUBLIC "-//W3C//DTD SVG 1.1//EN" "http://www.w3.org/Graphics/SVG/1.1/DTD/svg11.dtd"><svg t="1678763973550" class="icon" viewBox="0 0 1024 1024" version="1.1" xmlns="http://www.w3.org/2000/svg" p-id="18034" xmlns:xlink="http://www.w3.org/1999/xlink" width="200" height="200"><path d="M858.87 527.76H255.8a33.22 33.22 0 0 1 0-66.43h603.07a33.22 33.22 0 0 1 0 66.43z" fill="#85A5FF" p-id="18035"></path><path d="M506.2 526.76a33 33 0 0 1-27.05-14L387.61 383.2a33.16 33.16 0 1 1 54.06-38.41l91.54 129.55a33.2 33.2 0 0 1-27 52.42zM635.43 505.18a33 33 0 0 1-27-14l-91.59-129.56a33.15 33.15 0 1 1 54-38.41l91.54 129.55a33.2 33.2 0 0 1-27 52.42z" fill="#85A5FF" p-id="18036"></path><path d="M363.48 969.54a33.18 33.18 0 0 1-33.14-33.21v-64.79a33.14 33.14 0 1 1 66.27 0v64.79a33.18 33.18 0 0 1-33.13 33.21zM729.65 969.54a33.18 33.18 0 0 1-33.14-33.21v-64.79a33.14 33.14 0 1 1 66.27 0v64.79a33.18 33.18 0 0 1-33.13 33.21z" fill="#0C5AE5" p-id="18037"></path><path d="M408.93 680.46a29.35 29.35 0 1 1-29.28 29.35 29.31 29.31 0 0 1 29.28-29.35m0-44.29a73.64 73.64 0 1 0 73.45 73.64 73.63 73.63 0 0 0-73.45-73.64zM682.19 680.46a29.35 29.35 0 1 1-29.27 29.35 29.32 29.32 0 0 1 29.27-29.35m0-44.29a73.64 73.64 0 1 0 73.46 73.64 73.63 73.63 0 0 0-73.46-73.64z" fill="#85A5FF" p-id="18038"></path><path d="M811.18 904.76H281.94a81 81 0 0 1-80.82-81V159.14a81 81 0 0 1 80.82-81h529.24a81 81 0 0 1 80.82 81v664.59a81 81 0 0 1-80.82 81.03zM281.94 144.54a14.6 14.6 0 0 0-14.56 14.6v664.59a14.61 14.61 0 0 0 14.56 14.6h529.24a14.61 14.61 0 0 0 14.56-14.6V159.14a14.6 14.6 0 0 0-14.56-14.6zM126.9 617.89a33.18 33.18 0 0 1-33.13-33.22v-137a33.13 33.13 0 1 1 66.26 0v137a33.18 33.18 0 0 1-33.13 33.22zM966.22 617.89a33.18 33.18 0 0 1-33.13-33.22v-137a33.13 33.13 0 1 1 66.26 0v137a33.18 33.18 0 0 1-33.13 33.22z" fill="#0C5AE5" p-id="18039"></path></svg>